<?xml version="1.0" encoding="UTF-8"?>
<svg id="Layer_2" data-name="Layer 2" xmlns="http://www.w3.org/2000/svg" viewBox="0 0 456.37 510.88">
  <g id="Layer_1-2" data-name="Layer 1">
    <path d="M202.19,6.97L26,108.69C9.91,117.98,0,135.14,0,153.72v203.44c0,18.58,9.91,35.74,26,45.03l176.19,101.72c16.09,9.29,35.91,9.29,52,0l176.19-101.72c16.09-9.29,26-26.46,26-45.03v-203.44c0-18.58-9.91-35.74-26-45.03L254.19,6.97c-16.09-9.29-35.91-9.29-52,0ZM58.38,115.84l95.8-55.31c45.79-26.44,102.21-26.44,148,0l96.21,55.55c10.64,6.14,10.67,21.48.07,27.67l-3.45,2.01c-39.69,23.17-88.76,23.28-128.56.28l-48.86-28.23c-39.61-22.89-88.42-22.89-128.04-.02l-25.79,14.89c-15.98,9.22-16.01,32.27-.05,41.54l120.94,70.24c19.8,11.5,31.94,32.69,31.86,55.59l-.29,75.53c-.19,49.16-53.43,79.76-96,55.18l-23.85-13.77c-45.79-26.44-74-75.3-74-128.17v-110.63c0-25.72,13.72-49.49,36-62.35ZM240.23,375.03l.28-74.81c.09-22.67,12.16-43.6,31.74-55.03l137.67-80.35c10.67-6.23,24.07,1.47,24.07,13.82v110.15c0,52.88-28.21,101.73-74,128.17l-23.76,13.72c-42.76,24.69-96.19-6.29-96-55.67Z"/>
  </g>
</svg>